<?xml version="1.0" encoding="UTF-8"?>
<svg id="Layer_1" data-name="Layer 1" xmlns="http://www.w3.org/2000/svg" viewBox="0 0 595.28 595.28">
  <defs>
    <style>
      .cls-1 {
        fill: #f08921;
      }

      .cls-2 {
        fill: #cc6f29;
      }

      .cls-3 {
        fill: #23564d;
      }

      .cls-4 {
        fill: #2b7066;
      }
    </style>
  </defs>
  <g>
    <path class="cls-4" d="M559.22,199.82c-3.56-23.44-8.62-46.63-15.21-69.42-9.01-31.18-19.99-61.79-34.62-90.89,.04,2.35-.07,4.7-.06,7.04,2.58,16.07,4.42,32.26,5.75,48.48,1.93,23.64,2.29,47.37,1.12,71.05-1.21,24.42-4.03,48.78-8.76,72.94-7.73,39.55-20.57,78.27-37.44,115.7-17.48,38.8-39.53,76.13-67.07,110.83,28.34,25.95,59.9,49.22,94.81,68.93h0c25.5-45.17,42.77-92.54,53.69-140.61,9.09-40.03,13.98-80.53,13.7-120.83-.17-24.62-2.24-49.06-5.91-73.23Z"/>
    <path class="cls-3" d="M507.43,239.04c4.73-24.16,7.55-48.52,8.76-72.94,1.17-23.68,.81-47.42-1.12-71.05-1.32-16.23-3.16-32.41-5.75-48.48,.26,134.84-50.92,269.04-152.55,371.22,14.29,16.74,29.68,32.71,46.14,47.79,27.54-34.7,49.59-72.03,67.07-110.83,16.87-37.43,29.71-76.15,37.44-115.7Z"/>
  </g>
  <g>
    <path class="cls-4" d="M466.16,37.4c-95.05,.3-183.79,26.28-260.58,70.65-41.98,24.26-79.94,54.37-113.55,88.86-22.65,23.25-43.83,47.93-61.89,75.03,1.34-.79,2.72-1.49,4.06-2.26,10.09-7.85,20.37-15.46,30.91-22.71,39.69-27.29,82.79-49.43,128.69-65.04,80.38-27.35,168.24-35.75,257.44-20.46,9.7-39.79,15.06-81.26,14.93-124.07h0Z"/>
    <path class="cls-3" d="M193.79,181.94c-45.9,15.62-89,37.75-128.69,65.04-10.54,7.25-20.82,14.86-30.91,22.71,117.48-67.82,260.31-90.12,400.19-52.07,6.61-18.28,12.19-37.03,16.85-56.14-89.2-15.3-177.06-6.89-257.44,20.46Z"/>
  </g>
  <g>
    <path class="cls-1" d="M377.54,517.78c-42.1-23.41-81.09-52.16-115.5-86.33-47.82-47.48-87.13-104.46-114.32-169.28-40.02,13.48-79.05,31.8-116.13,55.81h0c51.66,79.79,121.51,140.38,200.36,180.96,43.12,22.19,88.96,37.83,136.16,47.45,31.81,6.47,64.02,10.94,96.59,11.48-1.08-.55-2.12-1.16-3.2-1.71-29.17-10.16-57.03-23.42-83.96-38.38Z"/>
    <path class="cls-2" d="M377.54,517.78c26.93,14.96,54.79,28.22,83.96,38.38-121.01-62.06-217.38-170.34-261.14-308.92-17.69,4.04-35.25,9.07-52.64,14.93,27.2,64.82,66.5,121.8,114.32,169.28,34.41,34.17,73.4,62.92,115.5,86.33Z"/>
  </g>
</svg>