<?xml version="1.0" encoding="UTF-8"?>
<svg id="Layer_1" data-name="Layer 1" xmlns="http://www.w3.org/2000/svg" viewBox="0 0 595.28 595.28">
  <defs>
    <style>
      .cls-1 {
        fill: #f08921;
      }

      .cls-2 {
        fill: #cc6f29;
      }

      .cls-3 {
        fill: #23564d;
      }

      .cls-4 {
        fill: #2b7066;
      }
    </style>
  </defs>
  <g>
    <path class="cls-4" d="M199.68,311.18h9.01l.41,4.83h.35c.71-2,1.82-3.37,3.33-4.12,1.51-.74,3.23-1.12,5.15-1.12h1.82v9.36c-.23,0-.52,0-.86-.03-.33-.02-.72-.03-1.15-.03-2.98,0-5.06,.62-6.24,1.85-1.18,1.24-1.81,2.99-1.88,5.27v15.77h-9.95v-31.78Z"/>
    <path class="cls-4" d="M229.09,341.52c-2.41-1.35-4.26-3.25-5.53-5.68-1.28-2.43-1.91-5.28-1.91-8.53,0-3.45,.65-6.43,1.94-8.92,1.3-2.49,3.13-4.42,5.5-5.77,2.37-1.35,5.13-2.03,8.27-2.03,3.77,0,6.87,.81,9.3,2.44,2.43,1.63,4.17,3.86,5.21,6.68,1.04,2.83,1.36,6.05,.97,9.65h-21.42c-.04,2.16,.53,3.82,1.71,4.97,1.18,1.16,2.73,1.74,4.65,1.74,1.41,0,2.62-.3,3.62-.91,1-.61,1.64-1.4,1.91-2.39h9.36c-.24,2.16-1.02,4.04-2.35,5.65-1.34,1.61-3.08,2.86-5.24,3.77-2.16,.9-4.59,1.35-7.3,1.35-3.37,0-6.27-.68-8.68-2.03Zm4.24-22.1c-1.04,.94-1.66,2.22-1.85,3.82h11.6c-.08-1.73-.65-3.03-1.71-3.91-1.06-.88-2.39-1.32-4-1.32s-2.99,.47-4.03,1.41Z"/>
    <path class="cls-4" d="M260.34,339.46c-2.3-2.73-3.44-6.86-3.44-12.39s1.15-9.66,3.44-12.39c2.29-2.73,5.33-4.09,9.09-4.09,2.35,0,4.39,.53,6.09,1.59,1.71,1.06,2.93,2.45,3.68,4.18h.53v-16.31h9.95l-.06,42.91h-9.53l-.35-5.18h-.53c-.74,1.73-1.97,3.12-3.68,4.18-1.71,1.06-3.74,1.59-6.09,1.59-3.77,0-6.8-1.36-9.09-4.09Zm16.54-4.95c.92-.68,1.61-1.57,2.06-2.65,.45-1.08,.68-2.21,.68-3.38v-2.82c0-1.22-.23-2.36-.68-3.44-.45-1.08-1.14-1.95-2.06-2.62-.92-.67-2.11-1-3.56-1-1.88,0-3.41,.67-4.56,2-1.16,1.33-1.74,3.49-1.74,6.47s.58,5.14,1.74,6.48c1.16,1.33,2.68,2,4.56,2,1.45,0,2.64-.34,3.56-1.03Z"/>
    <path class="cls-4" d="M302.19,341.52c-2.41-1.35-4.26-3.25-5.53-5.68-1.28-2.43-1.91-5.28-1.91-8.53,0-3.45,.65-6.43,1.94-8.92,1.3-2.49,3.13-4.42,5.5-5.77s5.13-2.03,8.27-2.03c3.77,0,6.87,.81,9.3,2.44,2.43,1.63,4.17,3.86,5.21,6.68,1.04,2.83,1.36,6.05,.97,9.65h-21.42c-.04,2.16,.53,3.82,1.71,4.97,1.18,1.16,2.73,1.74,4.65,1.74,1.41,0,2.62-.3,3.62-.91,1-.61,1.64-1.4,1.91-2.39h9.36c-.24,2.16-1.02,4.04-2.35,5.65-1.34,1.61-3.08,2.86-5.24,3.77-2.16,.9-4.59,1.35-7.3,1.35-3.37,0-6.27-.68-8.68-2.03Zm4.24-22.1c-1.04,.94-1.66,2.22-1.85,3.82h11.6c-.08-1.73-.65-3.03-1.71-3.91-1.06-.88-2.39-1.32-4-1.32s-2.99,.47-4.03,1.41Z"/>
    <path class="cls-4" d="M331.17,311.18h9.59l.35,5.47h.47c.79-2,2.06-3.51,3.83-4.53s3.73-1.53,5.88-1.53,4.02,.43,5.71,1.3c1.69,.86,3.02,2.25,4,4.15,.98,1.9,1.47,4.45,1.47,7.62v19.31h-9.95v-17.13c0-2.43-.41-4.24-1.24-5.42-.82-1.18-2.18-1.77-4.06-1.77-2,0-3.52,.67-4.56,2-1.04,1.33-1.56,2.82-1.56,4.47v17.84h-9.95v-31.78Z"/>
    <path class="cls-4" d="M374.82,341.49c-2.41-1.37-4.28-3.3-5.59-5.77-1.31-2.47-1.97-5.37-1.97-8.71s.67-6.23,2-8.68c1.33-2.45,3.22-4.36,5.65-5.71,2.43-1.35,5.3-2.03,8.59-2.03,2.83,0,5.33,.52,7.51,1.56,2.18,1.04,3.9,2.49,5.18,4.36,1.27,1.86,1.93,4.03,1.97,6.5h-9.65c-.28-1.49-.87-2.59-1.8-3.3-.92-.7-2.05-1.06-3.38-1.06-2.04,0-3.55,.77-4.53,2.3-.98,1.53-1.47,3.57-1.47,6.12,0,2.87,.54,4.98,1.62,6.36,1.08,1.37,2.52,2.06,4.33,2.06,1.61,0,2.86-.42,3.77-1.27,.9-.84,1.43-1.91,1.59-3.21h9.65c-.12,2.51-.84,4.71-2.15,6.59-1.31,1.88-3.08,3.35-5.3,4.38-2.22,1.04-4.74,1.56-7.56,1.56-3.22,0-6.03-.69-8.45-2.06Z"/>
    <path class="cls-4" d="M170.15,341.49c-2.41-1.37-4.28-3.3-5.59-5.77s-1.97-5.37-1.97-8.71,.67-6.23,2-8.68,3.22-4.36,5.65-5.71,5.3-2.03,8.59-2.03c2.83,0,5.33,.52,7.51,1.56,2.18,1.04,3.9,2.49,5.18,4.36,1.27,1.86,1.93,4.03,1.97,6.5h-9.65c-.28-1.49-.87-2.59-1.8-3.3-.92-.7-2.05-1.06-3.38-1.06-2.04,0-3.55,.77-4.53,2.3-.98,1.53-1.47,3.57-1.47,6.12,0,2.87,.54,4.98,1.62,6.36,1.08,1.37,2.52,2.06,4.33,2.06,1.61,0,2.86-.42,3.77-1.27,.9-.84,1.43-1.91,1.59-3.21h9.65c-.12,2.51-.84,4.71-2.15,6.59-1.31,1.88-3.08,3.35-5.3,4.38-2.22,1.04-4.74,1.56-7.56,1.56-3.22,0-6.03-.69-8.45-2.06Z"/>
    <path class="cls-4" d="M408.78,341.52c-2.41-1.35-4.26-3.25-5.53-5.68-1.28-2.43-1.91-5.28-1.91-8.53,0-3.45,.65-6.43,1.94-8.92,1.3-2.49,3.13-4.42,5.5-5.77s5.13-2.03,8.27-2.03c3.77,0,6.87,.81,9.3,2.44s4.17,3.86,5.21,6.68c1.04,2.83,1.36,6.05,.97,9.65h-21.42c-.04,2.16,.53,3.82,1.71,4.97,1.18,1.16,2.73,1.74,4.65,1.74,1.41,0,2.62-.3,3.62-.91,1-.61,1.64-1.4,1.91-2.39h9.36c-.24,2.16-1.02,4.04-2.35,5.65-1.34,1.61-3.08,2.86-5.24,3.77-2.16,.9-4.59,1.35-7.3,1.35-3.37,0-6.27-.68-8.68-2.03Zm4.24-22.1c-1.04,.94-1.66,2.22-1.85,3.82h11.6c-.08-1.73-.65-3.03-1.71-3.91-1.06-.88-2.39-1.32-4-1.32s-2.99,.47-4.03,1.41Z"/>
  </g>
  <g>
    <g>
      <path class="cls-4" d="M432.16,266.28c-.32-2.1-.77-4.18-1.36-6.22-.81-2.8-1.79-5.54-3.1-8.15,0,.21,0,.42,0,.63,.23,1.44,.4,2.89,.52,4.35,.17,2.12,.21,4.25,.1,6.37-.11,2.19-.36,4.37-.79,6.54-.69,3.55-1.84,7.02-3.36,10.37-1.57,3.48-3.54,6.83-6.01,9.94,2.54,2.33,5.37,4.41,8.5,6.18h0c2.29-4.05,3.84-8.3,4.81-12.61,.82-3.59,1.25-7.22,1.23-10.83-.02-2.21-.2-4.4-.53-6.57Z"/>
      <path class="cls-3" d="M427.52,269.8c.42-2.17,.68-4.35,.79-6.54,.1-2.12,.07-4.25-.1-6.37-.12-1.45-.28-2.91-.52-4.35,.02,12.09-4.57,24.12-13.68,33.28,1.28,1.5,2.66,2.93,4.14,4.28,2.47-3.11,4.45-6.46,6.01-9.94,1.51-3.36,2.66-6.83,3.36-10.37Z"/>
    </g>
    <g>
      <path class="cls-4" d="M423.82,251.72c-8.52,.03-16.48,2.36-23.36,6.33-3.76,2.18-7.17,4.87-10.18,7.97-2.03,2.08-3.93,4.3-5.55,6.73,.12-.07,.24-.13,.36-.2,.9-.7,1.83-1.39,2.77-2.04,3.56-2.45,7.42-4.43,11.54-5.83,7.21-2.45,15.08-3.21,23.08-1.83,.87-3.57,1.35-7.29,1.34-11.12h0Z"/>
      <path class="cls-3" d="M399.4,264.68c-4.12,1.4-7.98,3.38-11.54,5.83-.94,.65-1.87,1.33-2.77,2.04,10.53-6.08,23.34-8.08,35.88-4.67,.59-1.64,1.09-3.32,1.51-5.03-8-1.37-15.88-.62-23.08,1.83Z"/>
    </g>
    <g>
      <path class="cls-1" d="M415.87,294.79c-3.77-2.1-7.27-4.68-10.36-7.74-4.29-4.26-7.81-9.37-10.25-15.18-3.59,1.21-7.09,2.85-10.41,5h0c4.63,7.15,10.89,12.59,17.96,16.23,3.87,1.99,7.98,3.39,12.21,4.25,2.85,.58,5.74,.98,8.66,1.03-.1-.05-.19-.1-.29-.15-2.62-.91-5.11-2.1-7.53-3.44Z"/>
      <path class="cls-2" d="M415.87,294.79c2.41,1.34,4.91,2.53,7.53,3.44-10.85-5.56-19.49-15.27-23.41-27.7-1.59,.36-3.16,.81-4.72,1.34,2.44,5.81,5.96,10.92,10.25,15.18,3.09,3.06,6.58,5.64,10.36,7.74Z"/>
    </g>
  </g>
</svg>