<svg width="208" height="51" viewBox="0 0 208 51" fill="none" xmlns="http://www.w3.org/2000/svg">
<g clip-path="url(#clip0_3377_1493)">
<path d="M39.9107 11.9633C39.6463 10.2358 39.2721 8.52813 38.7856 6.85028C38.1196 4.55441 37.3063 2.29824 36.2236 0.15625C36.2261 0.329992 36.2186 0.501252 36.2186 0.674994C36.4107 1.85892 36.5454 3.0503 36.6452 4.24663C36.7874 5.98902 36.8148 7.73637 36.7275 9.48123C36.6377 11.2807 36.4281 13.0752 36.0789 14.8548C35.5076 17.7687 34.5546 20.6206 33.3073 23.3781C32.0125 26.2349 30.381 28.985 28.3403 31.5415C30.4384 33.4527 32.7759 35.1677 35.3604 36.6197C37.2489 33.2913 38.5262 29.8041 39.337 26.2622C40.0105 23.3136 40.3723 20.3302 40.3523 17.3617C40.3398 15.5473 40.1877 13.7478 39.9157 11.9682L39.9107 11.9633Z" fill="white"/>
<path d="M36.0764 14.8522C36.4257 13.0726 36.6352 11.2781 36.725 9.4786C36.8123 7.73374 36.7849 5.98639 36.6427 4.244C36.5454 3.04767 36.4082 1.85629 36.2161 0.672363C36.2361 10.6054 32.4466 20.4914 24.9226 28.0169C25.9804 29.2504 27.1204 30.4269 28.3379 31.5364C30.376 28.9799 32.0101 26.2298 33.3048 23.373C34.5546 20.6155 35.5051 17.7636 36.0764 14.8497V14.8522Z" fill="#C5D0CE"/>
<path d="M33.0204 0C25.9828 0.0223383 19.4118 1.93598 13.7263 5.20481C10.618 6.99188 7.80643 9.20833 5.31921 11.7499C3.64278 13.4625 2.07361 15.2794 0.73645 17.2774C0.836238 17.2203 0.938521 17.1682 1.03831 17.1111C1.78672 16.5328 2.5476 15.9719 3.32595 15.4382C6.2647 13.4278 9.45542 11.7971 12.8532 10.6479C18.8056 8.6325 25.3092 8.01447 31.9127 9.14131C32.6337 6.20756 33.0303 3.15466 33.0204 0Z" fill="white"/>
<path d="M12.8533 10.6477C9.45551 11.7994 6.26479 13.4276 3.32603 15.438C2.54519 15.9716 1.78431 16.5326 1.03839 17.1109C9.73741 12.1146 20.3124 10.4715 30.6679 13.2762C31.1569 11.9309 31.571 10.5484 31.9153 9.1411C25.3118 8.01426 18.8056 8.63228 12.8558 10.6477H12.8533Z" fill="#C5D0CE"/>
<path d="M26.4596 35.3863C23.3437 33.6613 20.4548 31.5441 17.9077 29.0273C14.3678 25.5302 11.4564 21.333 9.44322 16.5576C6.47952 17.5504 3.59066 18.9007 0.843994 20.6679C4.66837 26.5453 9.83988 31.008 15.6775 33.9988C18.8707 35.6345 22.2635 36.7861 25.7586 37.4935C28.1136 37.9701 30.4985 38.3002 32.9109 38.3399C32.831 38.3002 32.7537 38.2555 32.6739 38.2133C30.5135 37.4637 28.4503 36.4883 26.4571 35.3863H26.4596Z" fill="#F08921"/>
<path d="M26.4596 35.3862C28.4529 36.4882 30.516 37.4637 32.6764 38.2133C23.7179 33.6414 16.5831 25.6666 13.3425 15.458C12.0327 15.7559 10.733 16.1257 9.44574 16.5575C11.459 21.333 14.3703 25.5301 17.9103 29.0273C20.4573 31.544 23.3437 33.6612 26.4621 35.3862H26.4596Z" fill="#CC6F29"/>
</g>
<g clip-path="url(#clip1_3377_1493)">
<path d="M70.0091 17.0867H75.1014L75.3348 19.8114H75.5314C75.9306 18.6823 76.5572 17.9029 77.411 17.4856C78.2648 17.0622 79.2354 16.8535 80.3226 16.8535H81.3546V22.1434C81.2194 22.1434 81.0597 22.1434 80.8693 22.125C80.6789 22.1127 80.4639 22.1065 80.2182 22.1065C78.5351 22.1065 77.3557 22.4563 76.6923 23.1559C76.0289 23.8555 75.6726 24.8497 75.6296 26.1322V35.0428H70.003V17.0867H70.0091Z" fill="white"/>
<path d="M86.6312 34.2264C85.2675 33.4593 84.2233 32.3915 83.5046 31.0169C82.7797 29.6423 82.4235 28.0345 82.4235 26.1934C82.4235 24.242 82.792 22.5666 83.523 21.1552C84.254 19.7499 85.2921 18.6575 86.6373 17.8966C87.9764 17.1295 89.5366 16.749 91.3118 16.749C93.4433 16.749 95.194 17.2093 96.5699 18.1298C97.9459 19.0503 98.9287 20.3083 99.5184 21.9039C100.108 23.4994 100.286 25.3159 100.065 27.3594H87.9518C87.9273 28.5806 88.2528 29.5134 88.9162 30.17C89.5796 30.8205 90.458 31.1519 91.5453 31.1519C92.3438 31.1519 93.0256 30.9801 93.5908 30.6364C94.1559 30.2928 94.5183 29.8448 94.6719 29.2863H99.9668C99.8317 30.5076 99.3894 31.5692 98.6339 32.4774C97.8783 33.3857 96.8893 34.0975 95.6731 34.6069C94.4507 35.1162 93.0748 35.374 91.5453 35.374C89.6349 35.374 88.001 34.9935 86.6373 34.2264H86.6312ZM89.0268 21.7443C88.4371 22.2782 88.087 22.9962 87.9764 23.9044H94.5306C94.4876 22.9287 94.162 22.1923 93.5662 21.6952C92.9704 21.1981 92.2148 20.9465 91.3057 20.9465C90.3966 20.9465 89.6103 21.2104 89.0268 21.7443Z" fill="white"/>
<path d="M104.304 33.0606C103.007 31.5203 102.356 29.1883 102.356 26.0586C102.356 22.9289 103.007 20.6031 104.304 19.0628C105.6 17.5224 107.313 16.7492 109.445 16.7492C110.778 16.7492 111.927 17.0499 112.891 17.6452C113.855 18.2404 114.549 19.0321 114.973 20.0078H115.274V10.8027H120.901L120.864 35.0428H115.471L115.274 32.1156H114.973C114.549 33.0913 113.861 33.8768 112.891 34.4782C111.927 35.0796 110.778 35.3742 109.445 35.3742C107.313 35.3742 105.6 34.6071 104.304 33.0606ZM113.659 30.2684C114.181 29.8818 114.568 29.3847 114.826 28.7711C115.078 28.1635 115.207 27.5253 115.207 26.8564V25.2608C115.207 24.5735 115.078 23.923 114.826 23.3155C114.568 22.708 114.181 22.2109 113.659 21.8366C113.137 21.4622 112.467 21.272 111.644 21.272C110.575 21.272 109.721 21.6463 109.064 22.4011C108.407 23.156 108.081 24.3772 108.081 26.0586C108.081 27.7401 108.407 28.9613 109.064 29.7161C109.721 30.4709 110.575 30.8453 111.644 30.8453C112.467 30.8453 113.137 30.6489 113.659 30.2623V30.2684Z" fill="white"/>
<path d="M127.965 34.2264C126.601 33.4593 125.557 32.3915 124.838 31.0169C124.114 29.6423 123.757 28.0345 123.757 26.1934C123.757 24.242 124.126 22.5666 124.857 21.1552C125.588 19.7499 126.626 18.6575 127.971 17.8966C129.31 17.1295 130.87 16.749 132.646 16.749C134.777 16.749 136.528 17.2093 137.904 18.1298C139.28 19.0503 140.262 20.3083 140.852 21.9039C141.442 23.4994 141.62 25.3159 141.399 27.3594H129.286C129.261 28.5806 129.587 29.5134 130.25 30.17C130.913 30.8205 131.792 31.1519 132.879 31.1519C133.678 31.1519 134.359 30.9801 134.925 30.6364C135.49 30.2928 135.852 29.8448 136.006 29.2863H141.301C141.165 30.5076 140.723 31.5692 139.968 32.4774C139.212 33.3857 138.223 34.0975 137.007 34.6069C135.784 35.1162 134.409 35.374 132.879 35.374C130.969 35.374 129.335 34.9935 127.971 34.2264H127.965ZM130.361 21.7443C129.771 22.2782 129.421 22.9962 129.31 23.9044H135.864C135.821 22.9287 135.496 22.1923 134.9 21.6952C134.304 21.1981 133.549 20.9465 132.639 20.9465C131.73 20.9465 130.944 21.2104 130.361 21.7443Z" fill="white"/>
<path d="M144.36 17.0868H149.784L149.986 20.1797H150.25C150.693 19.0505 151.418 18.1975 152.413 17.6206C153.408 17.0438 154.52 16.7554 155.742 16.7554C156.964 16.7554 158.015 17.0008 158.973 17.4856C159.925 17.9704 160.681 18.7559 161.233 19.8299C161.786 20.9038 162.069 22.3398 162.069 24.1378V35.0428H156.442V25.3652C156.442 23.9906 156.209 22.9719 155.742 22.3091C155.275 21.6463 154.513 21.315 153.445 21.315C152.314 21.315 151.454 21.6954 150.865 22.4441C150.275 23.1928 149.98 24.0397 149.98 24.9724V35.0489H144.354V17.0868H144.36Z" fill="white"/>
<path d="M169.035 34.208C167.671 33.4286 166.614 32.3424 165.871 30.9494C165.128 29.5502 164.759 27.9117 164.759 26.0277C164.759 24.1438 165.14 22.5114 165.89 21.1245C166.645 19.7376 167.708 18.6637 169.084 17.8966C170.46 17.1295 172.081 16.749 173.943 16.749C175.54 16.749 176.952 17.0436 178.187 17.6327C179.416 18.2218 180.392 19.038 181.117 20.0935C181.842 21.1491 182.211 22.3703 182.235 23.7694H176.774C176.621 22.9287 176.283 22.3028 175.761 21.9039C175.239 21.505 174.6 21.3086 173.844 21.3086C172.689 21.3086 171.836 21.7443 171.283 22.6035C170.73 23.4687 170.454 24.6224 170.454 26.0584C170.454 27.6785 170.761 28.8752 171.369 29.6484C171.977 30.4216 172.794 30.8144 173.814 30.8144C174.723 30.8144 175.435 30.5751 175.945 30.0964C176.455 29.6177 176.756 29.0163 176.842 28.2861H182.303C182.235 29.7036 181.83 30.9433 181.086 32.011C180.343 33.0727 179.342 33.9012 178.089 34.4841C176.836 35.0733 175.411 35.3678 173.814 35.3678C171.995 35.3678 170.404 34.9812 169.035 34.2019V34.208Z" fill="white"/>
<path d="M53.3075 34.208C51.9438 33.4286 50.8873 32.3424 50.144 30.9494C49.4008 29.5564 49.0322 27.9117 49.0322 26.0277C49.0322 24.1438 49.4131 22.5114 50.1625 21.1245C50.9119 19.7376 51.9807 18.6637 53.3566 17.8966C54.7326 17.1295 56.3542 16.749 58.2155 16.749C59.8125 16.749 61.2253 17.0436 62.46 17.6327C63.6885 18.2218 64.6652 19.038 65.39 20.0935C66.1149 21.1491 66.4834 22.3703 66.508 23.7694H61.0472C60.8936 22.9287 60.5558 22.3028 60.0337 21.9039C59.5115 21.505 58.8727 21.3086 58.1172 21.3086C56.9624 21.3086 56.1085 21.7443 55.5557 22.6035C55.0029 23.4687 54.7264 24.6224 54.7264 26.0584C54.7264 27.6785 55.0336 28.8752 55.6417 29.6484C56.2498 30.4216 57.0668 30.8144 58.0865 30.8144C58.9956 30.8144 59.7081 30.5751 60.2179 30.0964C60.7278 29.6177 61.0288 29.0163 61.1148 28.2861H66.5756C66.508 29.7036 66.1026 30.9433 65.3593 32.011C64.6161 33.0727 63.6148 33.9012 62.3617 34.4841C61.1086 35.0733 59.6835 35.3678 58.0865 35.3678C56.2682 35.3678 54.6773 34.9812 53.3075 34.2019V34.208Z" fill="white"/>
<path d="M188.236 34.2264C186.873 33.4593 185.828 32.3915 185.11 31.0169C184.385 29.6423 184.029 28.0345 184.029 26.1934C184.029 24.242 184.397 22.5666 185.128 21.1552C185.859 19.7499 186.897 18.6575 188.243 17.8966C189.582 17.1295 191.142 16.749 192.917 16.749C195.049 16.749 196.799 17.2093 198.175 18.1298C199.551 19.0503 200.534 20.3083 201.124 21.9039C201.713 23.4994 201.891 25.3159 201.67 27.3594H189.557C189.532 28.5806 189.858 29.5134 190.521 30.17C191.185 30.8205 192.063 31.1519 193.15 31.1519C193.949 31.1519 194.631 30.9801 195.196 30.6364C195.761 30.2928 196.124 29.8448 196.277 29.2863H201.572C201.437 30.5076 200.995 31.5692 200.239 32.4774C199.484 33.3857 198.495 34.0975 197.278 34.6069C196.056 35.1162 194.68 35.374 193.15 35.374C191.24 35.374 189.606 34.9935 188.243 34.2264H188.236ZM190.632 21.7443C190.042 22.2782 189.692 22.9962 189.582 23.9044H196.136C196.093 22.9287 195.767 22.1923 195.171 21.6952C194.576 21.1981 193.82 20.9465 192.911 20.9465C192.002 20.9465 191.216 21.2104 190.632 21.7443Z" fill="white"/>
</g>
<defs>
<clipPath id="clip0_3377_1493">
<rect width="39.6108" height="38.3399" fill="white" transform="translate(0.73645)"/>
</clipPath>
<clipPath id="clip1_3377_1493">
<rect width="152.724" height="24.5714" fill="white" transform="translate(49.0322 10.8027)"/>
</clipPath>
</defs>
</svg>
