<?xml version="1.0" encoding="UTF-8"?>
<svg id="Layer_1" data-name="Layer 1" xmlns="http://www.w3.org/2000/svg" viewBox="0 0 595.28 595.28">
  <defs>
    <style>
      .cls-1 {
        fill: #f08921;
      }

      .cls-2 {
        fill: #cc6f29;
      }

      .cls-3 {
        fill: #23564d;
      }

      .cls-4 {
        fill: #2b7066;
      }
    </style>
  </defs>
  <g>
    <path class="cls-4" d="M375.27,268.61c-1.06-6.96-2.56-13.84-4.51-20.6-2.67-9.25-5.93-18.34-10.27-26.97,.01,.7-.02,1.39-.02,2.09,.77,4.77,1.31,9.57,1.71,14.39,.57,7.02,.68,14.06,.33,21.09-.36,7.25-1.2,14.48-2.6,21.65-2.29,11.74-6.11,23.23-11.11,34.34-5.19,11.51-11.73,22.59-19.91,32.89,8.41,7.7,17.78,14.61,28.14,20.46h0c7.57-13.41,12.69-27.46,15.94-41.73,2.7-11.88,4.15-23.9,4.07-35.86-.05-7.31-.66-14.56-1.75-21.73Z"/>
    <path class="cls-3" d="M359.9,280.25c1.4-7.17,2.24-14.4,2.6-21.65,.35-7.03,.24-14.07-.33-21.09-.39-4.82-.94-9.62-1.71-14.39,.08,40.02-15.11,79.85-45.27,110.17,4.24,4.97,8.81,9.71,13.69,14.18,8.17-10.3,14.72-21.38,19.91-32.89,5.01-11.11,8.82-22.6,11.11-34.34Z"/>
  </g>
  <g>
    <path class="cls-4" d="M347.65,220.4c-28.21,.09-54.55,7.8-77.34,20.97-12.46,7.2-23.73,16.13-33.7,26.37-6.72,6.9-13.01,14.22-18.37,22.27,.4-.23,.81-.44,1.21-.67,3-2.33,6.05-4.59,9.17-6.74,11.78-8.1,24.57-14.67,38.19-19.3,23.86-8.12,49.93-10.61,76.4-6.07,2.88-11.81,4.47-24.12,4.43-36.82h0Z"/>
    <path class="cls-3" d="M266.82,263.3c-13.62,4.64-26.41,11.2-38.19,19.3-3.13,2.15-6.18,4.41-9.17,6.74,34.87-20.13,77.26-26.75,118.77-15.45,1.96-5.42,3.62-10.99,5-16.66-26.47-4.54-52.55-2.05-76.4,6.07Z"/>
  </g>
  <g>
    <path class="cls-1" d="M321.35,362.97c-12.49-6.95-24.07-15.48-34.28-25.62-14.19-14.09-25.86-31-33.93-50.24-11.88,4-23.46,9.44-34.47,16.56h0c15.33,23.68,36.06,41.66,59.46,53.71,12.8,6.59,26.4,11.23,40.41,14.08,9.44,1.92,19,3.25,28.67,3.41-.32-.16-.63-.34-.95-.51-8.66-3.02-16.93-6.95-24.92-11.39Z"/>
    <path class="cls-2" d="M321.35,362.97c7.99,4.44,16.26,8.37,24.92,11.39-35.91-18.42-64.51-50.55-77.5-91.68-5.25,1.2-10.46,2.69-15.62,4.43,8.07,19.24,19.74,36.15,33.93,50.24,10.21,10.14,21.78,18.67,34.28,25.62Z"/>
  </g>
</svg>