<?xml version="1.0" encoding="UTF-8"?>
<svg id="Layer_1" data-name="Layer 1" xmlns="http://www.w3.org/2000/svg" viewBox="0 0 595.28 595.28">
  <defs>
    <style>
      .cls-1 {
        fill: #fff;
      }

      .cls-2 {
        fill: #f1f2f2;
      }

      .cls-3 {
        fill: #f08921;
      }

      .cls-4 {
        fill: #cc6f29;
      }
    </style>
  </defs>
  <g>
    <path class="cls-1" d="M538.72,207.49c-3.28-21.61-7.95-42.98-14.02-63.97-8.3-28.73-18.42-56.95-31.9-83.76,.03,2.16-.06,4.33-.06,6.49,2.38,14.81,4.08,29.73,5.29,44.68,1.78,21.78,2.11,43.66,1.03,65.48-1.11,22.51-3.72,44.96-8.07,67.22-7.12,36.45-18.96,72.13-34.5,106.62-16.11,35.75-36.43,70.16-61.82,102.14,26.12,23.92,55.2,45.36,87.37,63.52h0c23.5-41.63,39.42-85.29,49.48-129.59,8.38-36.89,12.89-74.22,12.63-111.35-.16-22.69-2.06-45.21-5.44-67.49Z"/>
    <path class="cls-2" d="M490.99,243.64c4.36-22.26,6.96-44.72,8.07-67.22,1.08-21.83,.75-43.7-1.03-65.48-1.22-14.96-2.92-29.87-5.29-44.68,.24,124.27-46.93,247.95-140.59,342.11,13.17,15.43,27.35,30.15,42.52,44.04,25.38-31.98,45.7-66.38,61.82-102.14,15.54-34.49,27.38-70.18,34.5-106.62Z"/>
  </g>
  <g>
    <path class="cls-1" d="M452.95,57.81c-87.6,.28-169.38,24.22-240.15,65.12-38.69,22.36-73.67,50.1-104.65,81.9-20.87,21.43-40.4,44.17-57.04,69.15,1.23-.73,2.51-1.37,3.74-2.08,9.3-7.24,18.78-14.25,28.49-20.93,36.58-25.15,76.29-45.55,118.6-59.94,74.08-25.21,155.05-32.95,237.25-18.85,8.94-36.67,13.88-74.89,13.76-114.35h0Z"/>
    <path class="cls-2" d="M201.94,191.01c-42.31,14.39-82.02,34.79-118.6,59.94-9.71,6.68-19.19,13.69-28.49,20.93,108.27-62.5,239.9-83.05,368.81-47.99,6.09-16.84,11.24-34.13,15.53-51.74-82.21-14.1-163.18-6.35-237.25,18.85Z"/>
  </g>
  <g>
    <path class="cls-3" d="M371.28,500.52c-38.8-21.58-74.73-48.07-106.44-79.56-44.07-43.76-80.3-96.27-105.36-156.01-36.88,12.42-72.85,29.3-107.03,51.44h0c47.61,73.54,111.98,129.38,184.65,166.78,39.74,20.45,81.99,34.87,125.49,43.73,29.31,5.96,59,10.09,89.01,10.58-1-.5-1.96-1.07-2.95-1.58-26.88-9.36-52.56-21.58-77.37-35.37Z"/>
    <path class="cls-4" d="M371.28,500.52c24.82,13.79,50.49,26.01,77.37,35.37-111.52-57.19-200.34-156.98-240.66-284.7-16.31,3.72-32.49,8.36-48.51,13.76,25.07,59.74,61.29,112.25,105.36,156.01,31.71,31.49,67.64,57.98,106.44,79.56Z"/>
  </g>
</svg>