<svg width="47" height="32" viewBox="0 0 47 32" fill="none" xmlns="http://www.w3.org/2000/svg">
<rect opacity="0.25" width="47" height="32" rx="3" fill="#F08A25"/>
<path fill-rule="evenodd" clip-rule="evenodd" d="M25.6272 9.3754C25.8659 9.61607 26 9.94232 26 10.2825C26 10.6226 25.8659 10.9489 25.6272 11.1896L15.2646 21.6245C15.1449 21.7448 15.0027 21.84 14.8462 21.9045C14.6897 21.9689 14.522 22.0014 14.3529 22C14.1838 21.9985 14.0167 21.9632 13.8613 21.8961C13.7059 21.829 13.5653 21.7314 13.4477 21.6091L9.36346 17.3578C9.24599 17.2368 9.15342 17.0937 9.09107 16.9366C9.02872 16.7796 8.99781 16.6116 9.00012 16.4425C9.00243 16.2734 9.03792 16.1064 9.10455 15.9511C9.17118 15.7958 9.26763 15.6553 9.38835 15.5377C9.50908 15.4201 9.6517 15.3276 9.80802 15.2657C9.96434 15.2038 10.1313 15.1736 10.2992 15.1768C10.4672 15.1801 10.6328 15.2167 10.7867 15.2846C10.9405 15.3526 11.0795 15.4505 11.1957 15.5727L14.3791 18.8861L23.8256 9.3754C24.0646 9.13502 24.3886 9 24.7264 9C25.0642 9 25.3882 9.13502 25.6272 9.3754Z" fill="#F08A25" stroke="#F08A25"/>
</svg>
